<?xml version="1.0" encoding="utf-8"?>
<svg viewBox="56.3362 15.2203 374.142 486.1017" xmlns="http://www.w3.org/2000/svg">
  <linearGradient gradientUnits="userSpaceOnUse" id="SVGID_1_" x1="252.1738" x2="321.2128" y1="357.127" y2="-179.7838" gradientTransform="matrix(0.511403, 0, 0, 0.507152, 0.662973, 12.147962)">
    <stop offset="0" style="stop-color:#CC5697"/>
    <stop offset="1" style="stop-color:#8E3979"/>
  </linearGradient>
  <linearGradient gradientUnits="userSpaceOnUse" id="SVGID_2_" x1="298.4941" x2="298.4941" y1="239.8081" y2="19.364" gradientTransform="matrix(0.511403, 0, 0, 0.507152, 0.662973, 12.147962)">
    <stop offset="0.0051" style="stop-color:#FFC3B0"/>
    <stop offset="1" style="stop-color:#E8897B"/>
  </linearGradient>
  <linearGradient gradientUnits="userSpaceOnUse" id="gradient-1" x1="311.5713" x2="345.333" y1="409.2168" y2="516.4917" gradientTransform="matrix(0.475837, 0, 0, -0.471881, 155.438651, 428.706043)">
    <stop offset="0.0051" style="stop-color:#FFC3B0"/>
    <stop offset="1" style="stop-color:#E8897B"/>
  </linearGradient>
  <linearGradient gradientUnits="userSpaceOnUse" id="gradient-2" x1="295.459" x2="295.459" y1="288.1797" y2="188.929" gradientTransform="matrix(0.475837, 0, 0, -0.471881, 183.805097, 282.168605)">
    <stop offset="0.0051" style="stop-color:#FFC3B0"/>
    <stop offset="1" style="stop-color:#E8897B"/>
  </linearGradient>
  <linearGradient gradientUnits="userSpaceOnUse" id="SVGID_3_" x1="328.4854" x2="328.4854" y1="275.1396" y2="32.4424" gradientTransform="matrix(0.475837, 0, 0, -0.471881, 152.373833, 198.331459)">
    <stop offset="0.0051" style="stop-color:#FFC3B0"/>
    <stop offset="1" style="stop-color:#E8897B"/>
  </linearGradient>
  <linearGradient gradientUnits="userSpaceOnUse" id="SVGID_4_" x1="242.0645" x2="177.5889" y1="213.8809" y2="122.6008" gradientTransform="matrix(0.475837, 0, 0, -0.471881, 255.707482, 186.477957)">
    <stop offset="0.0051" style="stop-color:#FFC3B0"/>
    <stop offset="1" style="stop-color:#E8897B"/>
  </linearGradient>
  <linearGradient gradientUnits="userSpaceOnUse" id="gradient-3" x1="273.376" x2="273.376" y1="145.1763" y2="326.9932" gradientTransform="matrix(0.435311, 0, 0, 0.435311, 21.075992, 277.223844)">
    <stop offset="0.0051" style="stop-color:#FFC3B0"/>
    <stop offset="1" style="stop-color:#E8897B"/>
  </linearGradient>
  <linearGradient gradientUnits="userSpaceOnUse" id="gradient-4" x1="271.9404" x2="271.9404" y1="342.1611" y2="138.9499" gradientTransform="matrix(0.435311, 0, 0, 0.435311, 21.075992, 277.223844)">
    <stop offset="0" style="stop-color:#A06260"/>
    <stop offset="1" style="stop-color:#82494C"/>
  </linearGradient>
  <linearGradient gradientUnits="userSpaceOnUse" id="gradient-5" x1="217.8174" x2="309.5928" y1="404.1689" y2="63.4692" gradientTransform="matrix(0.473093, 0, 0, -0.473093, 223.081901, 578.613266)">
    <stop offset="0.0051" style="stop-color:#88ABD6"/>
    <stop offset="1" style="stop-color:#4F76A0"/>
  </linearGradient>
  <path d="M 68.004 172.273 C 68.004 172.273 58.049 176.787 58.327 185.505 C 58.412 188.172 59.586 190.685 61.36 192.695 C 63.519 195.141 67.413 199.581 71.107 203.936 C 75.655 209.298 79.288 215.384 81.688 221.974 C 87.132 236.927 104.377 268.729 152.596 268.737 C 156.26 268.737 159.886 267.973 163.235 266.5 C 177.02 260.439 210.623 239.786 204.157 184.209 C 204.157 184.209 190.527 183.373 178.066 213.785 C 175.721 219.508 170.451 223.596 164.245 224.127 C 150.984 225.263 127.687 221.333 106.351 187.955 C 101.74 180.744 95.053 174.979 86.954 172.082 C 80.822 169.889 73.799 168.923 68.004 172.273 Z" fill="#59E1FF" style="" transform="matrix(0.9999999999999999, 0, 0, 0.9999999999999999, 0, 0)"/>
  <path d="M 204.157 184.21 C 204.157 184.21 190.526 183.375 178.064 213.788 C 175.72 219.509 170.452 223.595 164.249 224.127 C 153.972 225.007 137.669 222.835 120.92 206.287 L 116.996 208.294 C 116.996 208.294 134.409 234.836 157.308 244.029 C 158.705 244.589 160.249 244.679 161.72 244.343 C 165.111 243.571 171.596 241.564 177.907 236.691 C 180.363 234.792 183.9 237.059 183.231 240.074 C 182.102 245.171 180.256 251.619 177.288 258.191 C 192.042 246.994 208.907 225.03 204.157 184.21 Z" fill="#30A7EA" style="" transform="matrix(0.9999999999999999, 0, 0, 0.9999999999999999, 0, 0)"/>
  <path d="M 119.766 144.798 C 119.766 144.798 101.858 134.337 88.855 155.259 C 88.855 155.259 64.65 150.414 56.594 171.316 C 55.858 173.224 56.753 175.377 58.578 176.323 C 59.814 176.966 61.287 176.951 62.507 176.274 C 66.368 174.139 74.136 168.64 82.233 174.966 C 82.233 174.966 95.726 184.03 106.488 197.902 C 110.72 203.355 115.209 208.602 120.253 213.325 C 129.403 221.892 143.507 233.051 157.806 236.43 C 158.897 236.687 160.031 236.598 161.085 236.22 C 166.258 234.356 181.57 226.808 190.148 200.816 C 191.399 197.025 193.507 193.518 196.452 190.801 C 198.524 188.889 201.143 187.193 204.189 186.7 C 206.001 186.407 207.208 184.677 206.715 182.923 C 205.757 179.51 203.345 174.764 197.287 173.262 C 197.287 173.262 196.601 160.854 184.922 156.233 L 119.766 144.798 Z" fill="url(#SVGID_1_)" style="" transform="matrix(0.9999999999999999, 0, 0, 0.9999999999999999, 0, 0)"/>
  <path d="M 190.329 200.264 C 191.044 198.046 192.05 195.923 193.476 194.075 C 195.7 191.194 199.417 187.471 204.188 186.7 C 206.001 186.407 207.207 184.677 206.714 182.923 C 205.756 179.51 203.345 174.764 197.287 173.262 C 197.287 173.262 196.6 160.854 184.922 156.233 L 174.218 154.354 L 164.168 173.748 C 173.225 175.406 175.088 181.715 175.313 185.793 C 175.43 187.954 176.56 189.892 178.352 191.124 C 188.414 198.039 184.317 212.365 182.419 217.511 C 185.329 212.91 188.073 207.247 190.329 200.264 Z" fill="#A03774" style="" transform="matrix(0.9999999999999999, 0, 0, 0.9999999999999999, 0, 0)"/>
  <path d="M 138.517 172.273 C 138.517 172.273 154.115 182.509 154.834 197.96 L 159.323 197.96 C 159.323 197.96 157.796 183.247 168.722 174.226 L 168.722 172.273 L 138.517 172.273 Z" fill="#A03774" style="" transform="matrix(0.9999999999999999, 0, 0, 0.9999999999999999, 0, 0)"/>
  <path d="M 106.384 72.266 C 106.384 72.266 93.998 76.83 93.998 90.488 L 93.998 115.372 C 93.998 115.372 93.57 121.937 88.658 122.36 C 88.658 122.36 86.334 122.691 84.378 121.399 C 82.392 120.09 79.761 121.36 79.532 123.713 C 79.307 126.044 79.543 128.846 80.822 131.915 C 81.963 134.646 83.831 137.033 86.118 138.932 C 91.594 143.475 104.083 150.294 123.868 141.635 L 123.868 72.266 L 106.384 72.266 Z" fill="#E6E6F8" style="" transform="matrix(0.9999999999999999, 0, 0, 0.9999999999999999, 0, 0)"/>
  <path d="M 185.276 120.896 L 182.914 120.896 L 182.914 101.555 L 185.276 101.555 C 190.663 101.555 195.029 105.884 195.029 111.227 C 195.029 116.567 190.663 120.896 185.276 120.896 Z" fill="#C66760" style="" transform="matrix(0.9999999999999999, 0, 0, 0.9999999999999999, 0, 0)"/>
  <rect fill="url(#SVGID_2_)" height="77.976" width="63.219" x="121.704" y="72.266" style="" transform="matrix(0.9999999999999999, 0, 0, 0.9999999999999999, 0, 0)"/>
  <path d="M 133.72 80.85 L 164.368 80.85 C 168.672 80.85 172.162 84.312 172.162 88.579 L 172.162 150.242 L 184.922 150.242 L 184.922 72.266 L 133.72 72.266 L 133.72 80.85 Z" fill="#E8897B" style="" transform="matrix(0.9999999999999999, 0, 0, 0.9999999999999999, 0, 0)"/>
  <circle cx="135.929" cy="184.252" fill="#333345" r="3.482" style="" transform="matrix(0.8227109909057617, 0, 0, 0.8158710002899169, 40.138373431450695, -56.9970881120021)"/>
  <circle cx="165.969" cy="184.252" fill="#333345" r="3.482" style="" transform="matrix(0.8227109909057617, 0, 0, 0.8158710002899169, 40.138373431450695, -56.9970881120021)"/>
  <path d="M 112.791 115.796 C 113.645 144.162 87.31 139.851 87.285 139.847 C 93.263 144.3 105.374 149.729 123.868 141.633 L 123.868 115.796 L 112.791 115.796 Z" fill="#B3B3C5" style="" transform="matrix(0.9999999999999999, 0, 0, 0.9999999999999999, 0, 0)"/>
  <path d="M 136.275 72.266 C 136.275 72.266 139.415 89.673 126.187 96.169 L 126.187 127.327 C 126.187 131.753 128.075 136.067 131.599 138.783 C 133.672 140.383 136.423 141.77 139.982 142.267 C 141.526 142.482 142.957 141.446 143.351 139.951 C 144.636 135.094 149.063 124.676 163.686 122.282 C 168.577 121.481 173.64 121.806 178.244 123.623 C 184.042 125.91 190.864 131.027 191.15 142.461 C 191.15 161.124 175.894 176.254 157.074 176.254 L 151.073 176.254 C 132.252 176.254 116.997 161.124 116.997 142.461 L 116.997 72.266 L 136.275 72.266 Z" fill="#E6E6F8" style="" transform="matrix(0.9999999999999999, 0, 0, 0.9999999999999999, 0, 0)"/>
  <path d="M 114.633 120.896 L 116.996 120.896 L 116.996 101.555 L 114.633 101.555 C 109.247 101.555 104.881 105.884 104.881 111.227 C 104.881 116.567 109.247 120.896 114.633 120.896 Z" fill="#E8897B" style="" transform="matrix(0.9999999999999999, 0, 0, 0.9999999999999999, 0, 0)"/>
  <path d="M 173.328 113.747 L 167.582 113.747 C 165.697 113.747 164.17 112.231 164.17 110.363 C 164.17 108.494 165.697 106.98 167.582 106.98 L 173.328 106.98 C 175.213 106.98 176.741 108.494 176.741 110.363 C 176.741 112.232 175.212 113.747 173.328 113.747 Z" fill="#E8897B" style="" transform="matrix(0.9999999999999999, 0, 0, 0.9999999999999999, 0, 0)"/>
  <path d="M 191.15 142.461 C 190.864 131.027 184.039 125.91 178.244 123.623 C 176.285 122.851 174.242 122.363 172.164 122.101 C 172.229 122.233 186.384 151.495 173.11 172.273 C 183.842 166.585 191.15 155.372 191.15 142.461 Z" fill="#B3B3C5" style="" transform="matrix(0.9999999999999999, 0, 0, 0.9999999999999999, 0, 0)"/>
  <path d="M 128.305 50.151 C 123.233 47.716 121.249 41.571 123.389 36.402 C 123.893 35.181 124.487 34.185 125.009 33.44 C 125.708 32.438 125.727 31.121 125.012 30.131 C 122.981 27.32 121.123 24.103 119.849 21.756 C 119.115 20.396 117.149 20.396 116.413 21.756 C 115.14 24.103 113.281 27.32 111.252 30.131 C 110.536 31.121 110.555 32.438 111.255 33.44 C 111.776 34.185 112.37 35.181 112.875 36.402 C 115.014 41.571 113.03 47.716 107.959 50.151 C 106.131 51.027 102.342 51.795 99.272 51.795 L 100.693 62.376 L 118.132 62.376 L 135.57 62.376 L 137.246 51.037 C 134.176 51.037 130.132 51.026 128.305 50.151 Z" fill="#AD6D2A" style="" transform="matrix(0.9999999999999999, 0, 0, 0.9999999999999999, 0, 0)"/>
  <path d="M 96.511 80.85 L 123.868 80.85 L 123.868 72.266 L 106.384 72.266 C 106.384 72.266 100.128 74.598 96.511 80.85 Z" fill="#B3B3C5" style="" transform="matrix(0.9999999999999999, 0, 0, 0.9999999999999999, 0, 0)"/>
  <path d="M 136.316 80.85 C 136.949 76.112 136.275 72.266 136.275 72.266 L 116.996 72.266 L 116.996 80.85 L 136.316 80.85 Z" fill="#B3B3C5" style="" transform="matrix(0.9999999999999999, 0, 0, 0.9999999999999999, 0, 0)"/>
  <path d="M 178.257 50.151 C 173.186 47.716 171.201 41.571 173.339 36.402 C 173.844 35.181 174.439 34.185 174.96 33.44 C 175.659 32.438 175.678 31.121 174.963 30.131 C 172.932 27.32 171.076 24.103 169.803 21.756 C 169.066 20.396 167.1 20.396 166.364 21.756 C 165.092 24.103 163.233 27.32 161.202 30.131 C 160.488 31.121 160.506 32.438 161.207 33.44 C 161.728 34.185 162.321 35.181 162.826 36.402 C 164.964 41.571 162.98 47.716 157.909 50.151 C 156.083 51.027 152.294 51.795 149.224 51.795 L 150.643 62.376 L 168.084 62.376 L 185.524 62.376 L 187.197 51.037 C 184.128 51.037 180.083 51.026 178.257 50.151 Z" fill="#AD6D2A" style="" transform="matrix(0.9999999999999999, 0, 0, 0.9999999999999999, 0, 0)"/>
  <path d="M 183.371 29.571 C 182.337 31.007 182.319 32.906 183.334 34.357 C 184.111 35.468 185.003 36.971 185.746 38.825 C 188.665 46.095 185.579 55.051 178.436 58.38 C 175.844 59.588 172.508 60.388 168.21 60.388 C 163.815 60.388 160.422 59.551 157.806 58.295 C 150.543 54.808 147.701 46.01 150.764 38.605 C 151.486 36.857 152.337 35.432 153.083 34.362 C 154.094 32.911 154.091 31.016 153.056 29.581 C 149.743 24.985 146.753 19.645 144.965 16.262 C 144.23 14.873 142.239 14.873 141.504 16.262 C 139.718 19.642 136.731 24.974 133.421 29.568 C 132.385 31.007 132.371 32.91 133.388 34.364 C 134.161 35.474 135.048 36.967 135.79 38.809 C 138.764 46.209 135.876 54.847 128.64 58.305 C 126.028 59.554 122.642 60.388 118.259 60.388 C 113.997 60.388 110.68 59.601 108.097 58.409 C 100.91 55.093 97.791 46.127 100.722 38.823 C 101.466 36.97 102.358 35.467 103.135 34.356 C 104.148 32.906 104.133 31.007 103.099 29.571 C 100.789 26.368 98.636 22.804 96.941 19.794 C 95.959 18.053 93.283 18.758 93.283 20.753 L 93.283 70.876 C 93.283 73.597 95.509 75.805 98.252 75.805 L 118.259 75.805 L 143.234 75.805 L 168.21 75.805 L 188.216 75.805 C 190.961 75.805 193.186 73.597 193.186 70.876 L 193.186 20.754 C 193.186 18.759 190.51 18.053 189.528 19.795 C 187.831 22.805 185.68 26.369 183.371 29.571 Z" fill="#FFCA95" style="" transform="matrix(0.9999999999999999, 0, 0, 0.9999999999999999, 0, 0)"/>
  <path d="M 188.216 75.805 C 190.961 75.805 193.186 73.598 193.186 70.878 L 193.186 20.754 C 193.186 18.759 190.51 18.053 189.528 19.795 C 187.831 22.805 185.68 26.369 183.371 29.573 C 182.337 31.007 182.319 32.907 183.334 34.357 C 184.111 35.468 185.003 36.971 185.746 38.825 C 188.665 46.096 185.579 55.051 178.436 58.381 C 175.844 59.589 172.508 60.389 168.21 60.389 C 163.815 60.389 160.422 59.551 157.806 58.295 C 150.543 54.81 147.701 46.01 150.764 38.606 C 151.486 36.857 152.337 35.432 153.083 34.364 C 154.094 32.912 154.091 31.017 153.056 29.581 C 149.743 24.985 146.753 19.645 144.965 16.264 C 144.597 15.569 143.915 15.221 143.234 15.221 L 143.234 68.476 C 143.234 68.476 142.979 75.805 151.645 75.805 L 168.21 75.805 L 188.216 75.805 Z" fill="#FBB04D" style="" transform="matrix(0.9999999999999999, 0, 0, 0.9999999999999999, 0, 0)"/>
  <ellipse cx="156.811" cy="207.285" fill="#FBB04D" rx="10.794" ry="12.127" style="" transform="matrix(0.9999999999999999, 0, 0, 0.9999999999999999, 0, 0)"/>
  <ellipse cx="298.495" cy="381.308" fill="#FFCA95" rx="3.424" ry="3.85" transform="matrix(0.9852020144462584, 0.17139902710914612, -0.17419901490211487, 0.9847150444984436, -74.34418321376626, -221.09832269478602)" style=""/>
  <path d="M 283.979 230.175 C 283.979 230.175 284.186 208.885 279.231 190.254 L 259.971 233.041 C 259.971 233.041 276.755 234.678 283.979 230.175 Z" fill="#E8897B" style="transform-origin: 271.976px 211.793px;" transform="matrix(-1, 0, 0, -1, -0.000073193428, -0.000009467886)"/>
  <path d="M 263.218 207.17 C 263.218 207.17 267.722 194.54 282.794 191.19 C 288.242 189.979 293.983 190.436 298.985 192.903 C 302.175 194.476 305.614 197.014 308.057 201.095 C 308.707 202.181 310.276 202.174 310.973 201.117 C 312.56 198.707 315.538 195.246 320.537 192.91 C 327.738 189.546 336.114 190.091 343.086 193.904 C 348.384 196.804 354.189 202.002 356.418 211.228 C 357.521 215.795 357.408 220.553 356.43 225.147 C 354.723 233.159 344.263 249.087 336.443 257.736 C 336.443 257.737 296.25 248.525 263.218 207.17 Z" fill="url(#gradient-1)" style="transform-origin: 310.211px 224.142px;" transform="matrix(-1, 0, 0, -1, -0.000013867512, -0.000010019928)"/>
  <path d="M 356.431 230.296 C 356.362 230.618 356.283 230.972 356.205 231.319 C 348.382 231.585 328.779 234.593 326.119 257.735 C 309.601 251.379 283.805 238.094 263.22 212.319 C 263.22 212.319 267.723 199.689 282.795 196.339 C 288.244 195.128 293.984 195.584 298.987 198.051 C 302.175 199.625 305.615 202.164 308.058 206.244 C 308.708 207.33 310.277 207.324 310.974 206.266 C 312.561 203.856 315.54 200.395 320.538 198.06 C 327.739 194.695 336.116 195.24 343.086 199.053 C 348.386 201.952 354.191 207.151 356.419 216.377 C 357.522 220.943 357.408 225.703 356.431 230.296 Z" fill="#B56D95" style="transform-origin: 310.213px 226.714px;" transform="matrix(-1, 0, 0, -1, 0.000047167556, 0.000020382673)"/>
  <path d="M 303.967 251.096 C 303.899 251.417 303.819 251.772 303.743 252.12 C 299.547 252.261 291.967 253.197 285.427 257.597 C 286.734 249.103 288.194 224.946 263.22 221.889 C 264.57 220.797 266.174 219.746 268.073 218.859 C 275.275 215.495 283.651 216.038 290.623 219.853 C 295.921 222.751 301.728 227.95 303.955 237.177 C 305.058 241.744 304.945 246.503 303.967 251.096 Z" fill="#934A74" style="transform-origin: 283.98px 237.115px;" transform="matrix(-1, 0, 0, -1, -0.000012694895, -0.000041117444)"/>
  <path d="M 311.726 215.994 C 310.763 217.827 309.064 220.371 306.307 222.532 C 305.714 222.997 306.131 223.932 306.872 223.779 L 312.157 222.69 C 312.157 222.69 313.875 223.995 316.696 225.568 C 317.36 225.937 318.069 225.148 317.616 224.541 C 316.052 222.447 314.056 219.336 313.207 216.166 C 313.018 215.461 312.068 215.348 311.726 215.994 Z" fill="#934A74" style="transform-origin: 311.892px 220.616px;" transform="matrix(-1, 0, 0, -1, -0.000013942651, -0.000009862283)"/>
  <path d="M 339.203 257.054 C 338.174 258.318 336.154 257.719 335.888 256.119 C 332.693 236.918 316.454 230.648 311.892 229.112 C 313.782 228.196 315.888 227.41 318.291 226.875 C 323.74 225.664 329.481 226.121 334.483 228.588 C 337.308 229.982 340.328 232.139 342.681 235.452 C 343.651 237.901 344.101 240.566 344.019 243.258 C 343.808 250.023 341.301 254.482 339.203 257.054 Z" fill="#934A74" style="transform-origin: 327.96px 241.983px;" transform="matrix(-1, 0, 0, -1, 0.0000463742, 0.000019700097)"/>
  <path d="M 430.48 134.703 C 430.48 134.703 423.134 150.979 403.293 148.557 C 395.317 147.584 387.894 143.863 382.168 138.272 C 375.711 131.968 368.423 121.221 369.086 105.163 C 369.15 103.605 369.344 102.065 369.567 100.522 C 370.29 95.55 372.063 84.139 373.971 77.864 C 374.55 75.967 374.911 74.021 375.039 72.043 L 375.061 71.704 C 375.749 61.014 369.735 50.789 359.741 46.725 C 356.096 45.244 351.663 44.298 346.286 44.308 C 342.22 44.316 339.836 39.847 342.049 36.464 C 344.959 32.022 350.622 26.933 361.645 24.2 C 368.985 22.381 376.77 22.581 383.77 25.427 C 387.759 27.048 391.847 29.548 394.389 33.379 C 394.389 33.379 395.247 26.917 402.032 26.286 C 405.176 25.993 408.25 27.184 410.69 29.171 C 414.151 31.992 419.149 37.307 419.805 44.862 C 419.804 44.862 399.471 89.84 430.48 134.703 Z" fill="#FFE19F" style="transform-origin: 385.841px 85.913px;" transform="matrix(-1, 0, 0, -1, 0.000043786719, -0.000019099399)"/>
  <path d="M 351.881 120.148 C 352.933 118.434 354.848 116.619 358.283 116.299 C 361.426 116.006 364.502 117.199 366.941 119.185 C 370.402 122.006 375.399 127.321 376.055 134.877 C 376.055 134.877 374.27 138.853 372.562 145.585 C 370.157 134.971 364.497 124.132 351.881 120.148 Z" fill="#D8A648" style="transform-origin: 363.967px 130.92px;" transform="matrix(-1, 0, 0, -1, -0.000077305746, -0.000036370157)"/>
  <path d="M 302.257 151.087 C 313.27 162.732 354.653 203.78 388.269 200.957 C 390.78 200.747 393.229 199.907 395.213 198.37 C 395.348 198.265 395.481 198.16 395.613 198.047 C 396.822 197.03 398.658 197.502 399.259 198.957 C 401.581 204.573 403.345 215.772 381.695 217.488 C 381.695 217.488 384.182 229.415 360.924 227.299 C 360.924 227.299 358.42 245.288 328.161 245.911 C 328.161 245.911 290.793 246.726 296.094 226.144 C 296.094 226.144 258.109 218.3 255.891 191.196 C 255.812 190.235 255.883 189.276 256.044 188.324 C 257.168 181.713 263.427 157.217 295.175 149.025 C 297.734 148.367 300.448 149.173 302.257 151.087 Z" fill="#CFC46E" style="transform-origin: 328.221px 197.357px;" transform="matrix(-1, 0, 0, -1, -0.000014672621, -0.000039340123)"/>
  <path d="M 321.615 183.075 C 321.615 183.075 324.102 195 300.845 192.883 C 300.845 192.883 300.842 192.902 300.836 192.934 C 300.836 192.941 300.833 192.955 300.83 192.963 C 300.825 192.995 300.82 193.029 300.811 193.079 C 300.804 193.104 300.797 193.14 300.791 193.169 C 300.781 193.215 300.773 193.256 300.762 193.311 C 300.75 193.355 300.737 193.411 300.724 193.462 C 300.713 193.516 300.7 193.568 300.686 193.628 C 300.669 193.687 300.65 193.755 300.633 193.821 C 300.614 193.888 300.598 193.951 300.577 194.024 C 300.555 194.099 300.528 194.183 300.504 194.263 C 300.48 194.337 300.459 194.408 300.433 194.487 C 300.404 194.575 300.37 194.672 300.337 194.769 C 300.307 194.851 300.28 194.931 300.248 195.02 C 300.212 195.12 300.17 195.226 300.128 195.331 C 300.093 195.42 300.059 195.512 300.019 195.606 C 299.974 195.719 299.922 195.838 299.87 195.953 C 299.828 196.051 299.787 196.146 299.742 196.246 C 299.686 196.371 299.622 196.499 299.56 196.628 C 299.51 196.729 299.462 196.829 299.41 196.933 C 299.343 197.067 299.268 197.203 299.195 197.342 C 299.138 197.447 299.081 197.553 299.022 197.66 C 298.94 197.803 298.856 197.945 298.77 198.091 C 298.705 198.2 298.64 198.311 298.57 198.422 C 298.477 198.57 298.379 198.722 298.28 198.874 C 298.206 198.985 298.129 199.097 298.053 199.212 C 297.945 199.364 297.835 199.52 297.722 199.675 C 297.637 199.792 297.551 199.907 297.461 200.026 C 297.342 200.181 297.219 200.338 297.091 200.497 C 296.996 200.615 296.897 200.735 296.796 200.853 C 296.662 201.014 296.523 201.174 296.378 201.334 C 296.274 201.453 296.167 201.569 296.055 201.688 C 295.903 201.851 295.747 202.015 295.585 202.178 C 295.468 202.294 295.35 202.411 295.23 202.528 C 295.059 202.691 294.887 202.856 294.706 203.02 C 294.579 203.136 294.446 203.251 294.313 203.367 C 294.125 203.53 293.934 203.692 293.737 203.854 C 293.596 203.968 293.449 204.083 293.305 204.197 C 293.097 204.359 292.889 204.519 292.672 204.678 C 292.519 204.789 292.36 204.9 292.201 205.01 C 291.973 205.169 291.744 205.328 291.503 205.486 C 291.34 205.593 291.169 205.697 290.999 205.802 C 290.748 205.957 290.498 206.113 290.234 206.266 C 290.058 206.368 289.872 206.468 289.69 206.568 C 289.417 206.719 289.144 206.87 288.856 207.016 C 288.666 207.112 288.466 207.206 288.269 207.302 C 287.973 207.446 287.677 207.59 287.367 207.729 C 287.162 207.82 286.948 207.909 286.738 207.996 C 286.416 208.133 286.094 208.269 285.758 208.4 C 285.545 208.483 285.316 208.561 285.095 208.642 C 284.743 208.77 284.395 208.901 284.027 209.022 C 283.805 209.096 283.57 209.164 283.343 209.235 C 282.957 209.355 282.573 209.477 282.17 209.591 C 281.947 209.653 281.708 209.709 281.479 209.767 C 281.052 209.881 280.629 209.994 280.182 210.096 C 279.967 210.145 279.736 210.189 279.515 210.236 C 279.038 210.339 278.562 210.443 278.063 210.536 C 277.891 210.566 277.703 210.592 277.526 210.622 C 275.537 210.966 273.387 211.226 271.045 211.371 C 271.007 211.372 270.972 211.377 270.932 211.38 C 270.011 211.435 269.063 211.475 268.083 211.495 C 268.083 211.495 264.11 211.577 258.946 210.982 C 258.865 210.861 258.787 210.743 258.708 210.622 C 251.292 199.267 259.181 183.954 272.814 183.447 C 278.704 183.228 284.629 184.895 289.512 186.884 C 290.89 185.563 292.669 184.712 294.609 184.556 C 299.672 184.147 308.113 182.589 307.023 176.733 C 306.706 175.034 305.612 173.575 304.189 172.576 C 300.001 169.639 288.253 160.829 279.242 148.8 C 294.672 159.414 312.431 167.958 328.417 166.521 C 330.771 166.31 333.057 165.508 334.947 164.097 C 335.144 163.948 335.342 163.793 335.534 163.632 C 336.744 162.615 338.581 163.085 339.181 164.539 C 341.5 170.159 343.266 181.357 321.615 183.075 Z" fill="#A19145" style="transform-origin: 298.181px 180.15px;" transform="matrix(-1, 0, 0, -1, 0.000047705427, 0.000022464245)"/>
  <path d="M 394.966 242.178 C 370.364 231.884 345.427 240.84 334.587 245.915 C 339.767 236.775 349.616 226.318 368.287 221.5 C 370.845 220.841 373.561 221.65 375.369 223.563 C 379.022 227.424 386.025 234.523 394.966 242.178 Z" fill="#A19145" style="transform-origin: 364.776px 233.594px;" transform="matrix(-1, 0, 0, -1, 0.000044728396, 0.000050592689)"/>
  <path d="M 324.395 129.716 C 315.715 129.716 308.679 136.693 308.679 145.301 L 308.679 172.031 L 340.109 172.031 L 340.109 145.301 C 340.109 136.693 333.073 129.716 324.395 129.716 Z" fill="url(#gradient-2)" style="transform-origin: 324.395px 150.873px;" transform="matrix(-1, 0, 0, -1, -0.000014501586, -0.000006744548)"/>
  <path d="M 308.679 166.552 C 313.343 159.933 325.978 142.757 335.609 129.715 C 337.953 132.438 339.374 135.962 339.374 139.822 L 339.374 166.552 L 308.679 166.552 Z" fill="#E8897B" style="transform-origin: 324.026px 148.134px;" transform="matrix(-1, 0, 0, -1, -0.00001448509, -0.000006622105)"/>
  <path d="M 279.117 88.094 C 279.117 88.094 292.376 68.185 315.16 59.657 C 317.388 58.821 319.904 59.652 321.206 61.628 C 325.562 68.231 334.925 84.415 338.142 105.742 C 338.423 107.596 338.09 109.493 337.266 111.179 L 314.05 158.576 L 302.205 157.884 L 280.603 135.082 L 279.117 88.094 Z" fill="url(#SVGID_3_)" style="transform-origin: 308.679px 108.955px;" transform="matrix(-1, 0, 0, -1, 0.00004723613, -0.000020129457)"/>
  <path d="M 310.072 103.744 C 308.654 103.744 307.508 104.883 307.508 106.287 L 307.508 111.622 C 307.508 113.026 308.654 114.165 310.072 114.165 C 311.488 114.165 312.634 113.026 312.634 111.622 L 312.634 106.287 C 312.634 104.883 311.486 103.744 310.072 103.744 Z" fill="#333345" style="transform-origin: 310.07px 108.954px;" transform="matrix(-1, 0, 0, -1, -0.000013861224, 0.000010388166)"/>
  <path d="M 293.196 126.629 L 300.078 126.629 C 301.164 126.629 301.886 125.486 301.377 124.536 C 300.575 123.043 299.129 121.297 296.745 121.297 C 296.745 121.297 293.348 121.351 291.857 124.61 C 291.425 125.552 292.152 126.629 293.196 126.629 Z" fill="#E8897B" style="transform-origin: 296.636px 123.963px;" transform="matrix(-1, 0, 0, -1, -0.000013260668, -0.000005541579)"/>
  <path d="M 285.881 158.586 L 281.754 158.346 L 280.508 151.434 C 279.589 150.877 273.741 124.227 295.62 108.084 C 297.582 106.637 298.823 104.423 298.934 101.999 C 299.303 93.884 298.442 75.219 284.899 60.493 C 285.606 60.2 286.322 59.918 287.048 59.646 C 289.258 58.821 291.74 59.676 293.034 61.635 C 297.389 68.232 306.756 84.42 309.974 105.753 C 310.253 107.607 309.923 109.504 309.096 111.19 L 285.881 158.586 Z" fill="#E8897B" style="transform-origin: 294.594px 108.96px;" transform="matrix(-1, 0, 0, -1, 0.000047865779, 0.000010387897)"/>
  <path d="M 305.488 85.863 L 316.804 95.444 C 316.804 95.444 315.715 64.83 346.949 49.702 C 346.949 49.702 346.223 39.977 344.77 34.934 C 344.77 34.934 360.751 34.574 360.025 57.265 C 360.025 57.265 382.543 96.886 336.056 122.459 C 336.056 122.459 308.089 153.433 277.943 119.577 L 273.324 112.767 C 266.439 102.618 262.568 90.757 262.193 78.531 C 261.6 59.25 265.088 32.901 287.314 26.65 C 290.091 25.868 292.834 28.031 292.834 30.892 L 292.834 50.422 C 292.834 50.422 308.827 59.303 303.292 78.851 C 302.57 81.404 303.454 84.142 305.488 85.863 Z" fill="#FFE19F" style="transform-origin: 313.806px 80.949px;" transform="matrix(-1, 0, 0, -1, -0.00001402822, -0.000003618702)"/>
  <path d="M 270.395 126.962 C 277.255 118.417 291.252 96.626 279.596 72.24 C 277.999 68.902 274.796 66.615 271.085 66.306 C 268.719 66.109 265.702 66.223 262.134 67.049 C 266.021 63.249 270.879 59.693 276.989 56.735 C 276.989 56.735 276.264 47.01 274.811 41.967 C 274.811 41.967 290.79 41.607 290.066 64.298 C 290.066 64.298 311.144 101.391 270.395 126.962 Z" fill="#EDC063" style="transform-origin: 278.824px 84.465px;" transform="matrix(-1, 0, 0, -1, -0.000012464404, 0.000011482909)"/>
  <path d="M 321.287 56.001 C 323.466 57.979 326.828 57.81 328.825 55.65 C 332.903 51.235 341.15 44.663 355.381 42.421 C 356.366 42.266 357.053 41.364 356.895 40.386 C 356.759 39.55 356.052 38.928 355.2 38.895 C 350.291 38.707 334.072 38.84 321.766 47.816 C 319.045 49.799 318.797 53.741 321.287 56.001 Z" fill="#A19145" style="transform-origin: 338.24px 48.12px;" transform="matrix(-1, 0, 0, -1, 0.000045914651, -0.000002151131)"/>
  <path d="M 295.142 56.683 C 293.571 57.867 291.456 57.509 290.395 55.9 C 288.226 52.611 283.62 47.559 274.811 45.01 C 274.201 44.833 273.85 44.174 274.045 43.522 C 274.209 42.963 274.716 42.592 275.261 42.631 C 278.389 42.858 288.661 44.119 295.613 51.095 C 297.149 52.636 296.932 55.327 295.142 56.683 Z" fill="#A19145" style="transform-origin: 285.315px 50.006px;" transform="matrix(-1, 0, 0, -1, -0.000012754574, 0.000005393952)"/>
  <path d="M 348.342 125.278 C 347.069 126.122 345.413 124.917 345.836 123.457 C 347.61 117.332 350.925 105.661 352.818 97.57 C 352.818 97.57 355.594 83.807 368.125 80.66 C 371.091 79.914 374.092 81.832 374.592 84.826 C 374.98 87.144 375.133 90.186 374.456 93.696 C 373.919 96.488 372.746 99.11 371.226 101.518 C 367.873 106.826 360.226 117.398 348.342 125.278 Z" fill="url(#SVGID_4_)" style="transform-origin: 360.346px 103.028px;" transform="matrix(-1, 0, 0, -1, 0.000044926435, 0.000010653078)"/>
  <path d="M 354.091 116.628 C 356.082 114.314 358.355 110.675 358.737 105.862 C 358.813 104.892 357.714 104.242 356.895 104.774 C 355.174 105.892 352.937 108.029 353.235 111.497 C 353.235 111.497 353.289 113.512 352.635 115.875 C 352.4 116.727 353.513 117.301 354.091 116.628 Z" fill="#E8897B" style="transform-origin: 355.672px 110.753px;" transform="matrix(-1, 0, 0, -1, -0.000015899776, -0.00000495104)"/>
  <path d="M 333.933 192.671 C 336.699 188.622 342.412 183.161 353.641 181.362 C 355.463 181.07 355.497 178.51 353.677 178.202 C 350.205 177.611 345.696 177.555 340.53 179.154 C 336.674 180.347 333.426 183.058 332.001 186.806 C 331.468 188.206 331.068 189.847 330.971 191.727 C 330.887 193.347 333.016 194.014 333.933 192.671 Z" fill="#A19145" style="transform-origin: 342.998px 185.605px;" transform="matrix(-1, 0, 0, -1, 0.000106737105, 0.000022220391)"/>
  <circle cx="146.907" cy="285.02" fill="#C7DAFF" r="2.81" style="" transform="matrix(0.9999999999999999, 0, 0, 0.9999999999999999, 0, 0)"/>
  <path d="M 174.757 331.706 C 174.757 331.706 180.013 333.02 181.938 339.378 C 183.283 343.822 182.388 348.768 179 351.944 C 177.511 353.341 175.456 354.496 172.664 354.745 L 174.757 331.706 Z" fill="#A06260" style="" transform="matrix(0.9999999999999999, 0, 0, 0.9999999999999999, 0, 0)"/>
  <path d="M 109.247 395.024 C 109.247 395.024 84.055 400.104 63.349 425.698 C 61.185 428.37 61.649 432.326 64.426 434.355 C 69.732 438.227 78.236 446.863 86.462 465.561 C 86.462 465.561 96.949 492.404 135.281 495.374 C 142.053 495.899 148.899 494.837 155.061 491.979 C 167.047 486.423 185.148 473.043 187.526 442.467 C 188.039 435.864 187.002 429.197 184.151 423.22 C 177.658 409.604 159.577 390.936 109.247 395.024 Z" fill="#F9C8B2" style="" transform="matrix(0.9999999999999999, 0, 0, 0.9999999999999999, 0, 0)"/>
  <path d="M 187.526 442.467 C 188.039 435.864 187.001 429.197 184.15 423.22 C 178.414 411.187 163.607 395.22 125.512 394.489 L 122.248 402.539 L 118.123 421.107 C 118.123 421.107 124.82 444.976 154.307 447.074 C 154.307 447.074 171.921 448.943 161.869 488.242 C 172.954 481.149 185.568 467.638 187.526 442.467 Z" fill="#DDA288" style="" transform="matrix(0.9999999999999999, 0, 0, 0.9999999999999999, 0, 0)"/>
  <circle cx="146.057" cy="469.261" fill="#D39671" r="4.7" style="" transform="matrix(0.9999999999999999, 0, 0, 0.9999999999999999, 0, 0)"/>
  <path d="M 111.619 328.02 C 111.619 328.02 90.195 342.273 81.62 361.629 C 78.668 368.292 78.451 375.964 81.649 382.513 C 84.856 389.078 91.755 396.166 106.528 398.256 L 111.619 328.02 Z" fill="#773E41" style="" transform="matrix(0.9999999999999999, 0, 0, 0.9999999999999999, 0, 0)"/>
  <path d="M 170.45 371.463 L 173.016 371.463 C 177.634 371.463 181.375 367.72 181.375 363.103 C 181.375 358.486 177.634 354.744 173.016 354.744 L 170.45 354.744 L 170.45 371.463 Z" fill="#C66760" style="" transform="matrix(0.9999999999999999, 0, 0, 0.9999999999999999, 0, 0)"/>
  <path d="M 113.15 322.42 L 113.15 304.974 C 91.838 304.619 85.14 290.21 83.092 282.691 C 82.776 281.525 81.125 281.541 80.815 282.709 C 77.716 294.312 73.476 324.299 113.15 322.42 Z" fill="#EEF6FF" style="" transform="matrix(0.9999999999999999, 0, 0, 0.9999999999999999, 0, 0)"/>
  <path d="M 172.664 320.402 L 172.664 304.915 C 191.582 304.6 197.529 291.811 199.346 285.135 C 199.627 284.101 201.091 284.114 201.367 285.151 C 204.118 295.452 207.883 322.071 172.664 320.402 Z" fill="#819FEA" style="" transform="matrix(0.9999999999999999, 0, 0, 0.9999999999999999, 0, 0)"/>
  <path d="M 113.15 322.42 L 113.15 304.974 C 109.759 304.918 106.775 304.473 104.083 303.789 C 102.457 308.603 98.21 314.675 87.222 316.185 C 92.408 320.399 100.564 323.016 113.15 322.42 Z" fill="#C7DAFF" style="" transform="matrix(0.9999999999999999, 0, 0, 0.9999999999999999, 0, 0)"/>
  <polygon fill="url(#gradient-3)" points="175.912 331.706 174.757 392.584 104.246 392.584 105.432 332.278" style="" transform="matrix(0.9999999999999999, 0, 0, 0.9999999999999999, 0, 0)"/>
  <path d="M 72.731 416.952 C 77.919 417.439 84.991 418.897 91.426 422.921 C 100.034 428.299 109.629 431.879 119.741 432.764 C 137.987 434.362 164.696 433.811 184.117 421.06 C 186.307 419.621 186.853 416.641 185.358 414.489 C 179.91 406.647 163.115 390.129 118.215 389.941 C 118.215 389.941 90.718 391.349 70.623 410.801 C 68.414 412.938 69.67 416.665 72.731 416.952 Z" fill="#BC7D5C" style="" transform="matrix(0.9999999999999999, 0, 0, 0.9999999999999999, 0, 0)"/>
  <path d="M 104.663 371.463 L 102.099 371.463 C 97.481 371.463 93.739 367.72 93.739 363.103 C 93.739 358.486 97.481 354.744 102.099 354.744 L 104.663 354.744 L 104.663 371.463 Z" fill="#E8897B" style="" transform="matrix(0.9999999999999999, 0, 0, 0.9999999999999999, 0, 0)"/>
  <path d="M 104.899 331.706 L 104.156 401.053 C 103.882 426.594 124.511 447.447 150.055 447.447 C 163.697 447.447 174.756 436.389 174.756 422.746 L 174.756 379.037 L 134.454 379.243 L 123.192 385.486 C 123.192 385.486 107.999 379.657 107.999 356.096 L 107.999 331.705 L 104.899 331.705 L 104.899 331.706 Z" fill="url(#gradient-4)" style="" transform="matrix(0.9999999999999999, 0, 0, 0.9999999999999999, 0, 0)"/>
  <path d="M 161.294 345.662 L 161.294 392.584 L 174.757 392.584 L 175.912 331.706 L 141.72 331.984 C 144.796 332.344 149.722 333.135 153.875 334.774 C 158.348 336.542 161.294 340.852 161.294 345.662 Z" fill="#E8897B" style="" transform="matrix(0.9999999999999999, 0, 0, 0.9999999999999999, 0, 0)"/>
  <path d="M 161.21 398.256 L 161.21 419.721 C 161.21 425.77 160.022 431.797 157.434 437.264 C 155.781 440.762 153.411 444.41 150.085 447.447 C 163.713 447.43 174.757 436.379 174.757 422.746 L 174.757 379.037 L 168.423 379.068 L 147.833 381.732 C 147.833 381.732 160.531 382.087 161.21 398.256 Z" fill="#773E41" style="" transform="matrix(0.9999999999999999, 0, 0, 0.9999999999999999, 0, 0)"/>
  <path d="M 104.663 359.77 C 104.663 359.77 107.531 349.252 117.626 346.152 C 123.529 344.341 128.213 339.239 127.611 332.282 L 104.9 332.282 L 104.663 359.77 Z" fill="#773E41" style="" transform="matrix(0.9999999999999999, 0, 0, 0.9999999999999999, 0, 0)"/>
  <circle cx="142.142" cy="348.235" fill="#333345" r="3.45" style="" transform="matrix(0.9999999999999999, 0, 0, 0.9999999999999999, 0, 0)"/>
  <circle cx="168.169" cy="348.235" fill="#333345" r="3.45" style="" transform="matrix(0.9999999999999999, 0, 0, 0.9999999999999999, 0, 0)"/>
  <path d="M 183.494 381.161 C 180.813 380.358 177.622 378.607 175.502 374.817 C 172.945 370.242 168.501 367.201 163.572 366.182 C 160.776 365.604 147.838 365.604 145.042 366.182 C 140.113 367.201 135.668 370.242 133.11 374.817 C 130.991 378.607 127.8 380.358 125.118 381.161 C 122.735 381.876 122.174 385.221 124.156 386.796 C 128.189 389.998 133.243 390.205 136.887 389.772 C 139.367 389.479 141.675 388.164 143.169 386.048 C 147.444 379.997 161.172 379.997 165.445 386.048 C 166.94 388.164 169.246 389.479 171.727 389.772 C 175.372 390.205 180.425 389.998 184.458 386.796 C 186.44 385.221 185.88 381.876 183.494 381.161 Z" fill="#BC8285" style="" transform="matrix(0.9999999999999999, 0, 0, 0.9999999999999999, 0, 0)"/>
  <path d="M 138.738 321.052 C 138.738 320.64 138.738 288.896 138.738 288.896 C 138.738 288.896 108.908 288.221 105.762 319.824 L 138.738 321.052 Z" fill="#EEF6FF" style="" transform="matrix(0.9999999999999999, 0, 0, 0.9999999999999999, 0, 0)"/>
  <path d="M 156.149 288.895 C 156.149 288.895 182.249 294.233 180.061 319.273 L 156.149 319.273 L 156.149 288.895 Z" fill="#C7DAFF" style="" transform="matrix(0.9999999999999999, 0, 0, 0.9999999999999999, 0, 0)"/>
  <path d="M 111.619 320.042 L 138.738 321.051 C 138.738 320.781 138.738 306.968 138.738 297.536 C 136.663 305.832 130.282 316.644 111.619 320.042 Z" fill="#C7DAFF" style="" transform="matrix(0.9999999999999999, 0, 0, 0.9999999999999999, 0, 0)"/>
  <path d="M 156.149 319.824 L 137.664 319.824 L 137.664 288.125 C 137.664 286.41 139.055 285.02 140.77 285.02 L 153.044 285.02 C 154.759 285.02 156.149 286.41 156.149 288.125 L 156.149 319.824 Z" fill="#EEF6FF" style="" transform="matrix(0.9999999999999999, 0, 0, 0.9999999999999999, 0, 0)"/>
  <path d="M 179.997 333.902 L 106.575 333.902 C 104.309 333.902 102.47 332.064 102.47 329.795 L 102.47 322.169 C 102.47 319.902 104.309 318.064 106.575 318.064 L 179.997 318.064 C 182.265 318.064 184.104 319.902 184.104 322.169 L 184.104 329.795 C 184.104 332.064 182.265 333.902 179.997 333.902 Z" fill="#C7DAFF" style="" transform="matrix(0.9999999999999999, 0, 0, 0.9999999999999999, 0, 0)"/>
  <path d="M 184.104 322.169 C 184.104 319.902 182.265 318.065 179.997 318.065 L 162.937 318.065 C 162.374 322.048 158.817 332.756 143.726 333.902 L 179.997 333.902 C 182.265 333.902 184.104 332.064 184.104 329.795 L 184.104 322.169 Z" fill="#819FEA" style="" transform="matrix(0.9999999999999999, 0, 0, 0.9999999999999999, 0, 0)"/>
  <path d="M 183.494 381.161 C 180.813 380.358 177.622 378.607 175.502 374.817 C 173.96 372.058 171.724 369.868 169.115 368.332 C 169.264 376.676 163.884 380.39 158.687 382.026 C 161.522 382.696 164.015 384.025 165.443 386.048 C 166.94 388.164 169.245 389.479 171.726 389.772 C 175.372 390.205 180.424 389.998 184.456 386.796 C 186.44 385.221 185.88 381.876 183.494 381.161 Z" fill="#9E6369" style="" transform="matrix(0.9999999999999999, 0, 0, 0.9999999999999999, 0, 0)"/>
  <circle cx="155.404" cy="361.436" fill="#E8897B" r="1.667" style="" transform="matrix(0.9999999999999999, 0, 0, 0.9999999999999999, 0, 0)"/>
  <circle cx="146.907" cy="309.294" fill="#C7DAFF" r="2.81" style="" transform="matrix(0.9999999999999999, 0, 0, 0.9999999999999999, 0, 0)"/>
  <circle cx="146.907" cy="296.432" fill="#C7DAFF" r="2.81" style="" transform="matrix(0.9999999999999999, 0, 0, 0.9999999999999999, 0, 0)"/>
  <path d="M 280.353 294.472 C 280.353 294.472 280.832 307.149 287.141 317.997 C 287.974 319.428 289.917 319.704 291.136 318.584 C 295.36 314.704 303.876 304.853 305.482 287.412 L 280.353 294.472 Z" fill="#466B8E" style="transform-origin: 292.918px 303.343px;" transform="matrix(-1, 0, 0, -1, -0.000013094435, 0.00004747466)"/>
  <path d="M 321.266 501.322 C 321.266 501.322 315.915 481.702 296.386 468.298 C 295.402 467.625 295.546 466.133 296.664 465.715 C 297.464 465.416 298.429 465.133 299.512 464.971 C 299.512 464.971 284.398 445.397 258.187 436.561 C 256 435.824 255.561 432.963 257.433 431.614 C 260.758 429.216 266.221 426.079 274.169 423.863 C 274.169 423.863 271.712 420.102 266.007 417.643 C 263.165 416.418 262.248 412.831 263.999 410.279 C 271.861 398.82 292.08 372.547 322.786 354.7 C 324.126 353.922 325.783 355.022 325.605 356.562 C 325.296 359.235 324.892 362.905 324.625 366.014 C 324.515 367.29 325.988 368.069 326.973 367.251 C 333.433 361.896 351.977 349.11 383.184 347.694 C 384.921 347.614 386.565 348.492 387.506 349.953 C 391.99 356.909 404.738 378.084 407.093 397.325 L 410.433 398.399 C 411.863 398.859 412.55 400.486 411.861 401.823 C 410.237 404.969 406.901 410.219 401.605 413.104 C 401.605 413.104 409.046 413.267 414.214 417.856 C 415.821 419.285 415.354 421.909 413.319 422.61 C 404.341 425.697 382.566 435.754 381.782 460.841 L 321.266 501.322 Z" fill="url(#gradient-5)" style="transform-origin: 335.717px 424.505px;" transform="matrix(-1, 0, 0, -1, -0.000015007738, 0.000042058284)"/>
  <path d="M 340.23 429.323 C 331.251 432.41 309.476 442.467 308.694 467.555 L 258.213 501.322 C 261.341 497.268 266.139 490.673 270.96 482.585 L 256.273 487.856 C 255.827 476.788 263.83 469.287 263.83 469.287 L 278.454 468.502 C 284.422 455.699 288.796 441.162 287.392 427.547 C 287.392 427.547 285.666 409.323 265.116 415.56 L 263.75 414.259 C 263.75 414.259 276.345 403.385 291.092 401.827 C 291.092 401.827 313.004 361.647 281.675 359.378 C 289.584 356.853 299.027 354.908 310.095 354.407 C 311.831 354.327 313.476 355.206 314.418 356.666 C 318.9 363.622 331.648 384.798 334.003 404.038 L 337.343 405.112 C 338.774 405.572 339.461 407.2 338.772 408.535 C 337.147 411.682 333.813 416.932 328.515 419.818 C 328.515 419.818 335.958 419.979 341.125 424.569 C 342.733 425.998 342.265 428.623 340.23 429.323 Z" fill="#6086AD" style="transform-origin: 299.173px 427.862px;" transform="matrix(-1, 0, 0, -1, 0.000047661079, -0.00001912692)"/>
  <path d="M 277.475 401.69 C 283.104 397.444 294.383 387.493 296.664 374.485 C 296.664 374.485 312.64 369.92 322.584 356.94 C 323.288 356.02 323.754 354.935 323.996 353.802 C 325.493 346.792 332.238 319.604 348.399 310.774 C 350.332 309.72 351.726 307.911 352.077 305.737 C 353.009 299.97 353.49 288.847 345.208 282.397 C 343.969 281.432 342.214 281.486 340.952 282.423 L 333.479 287.967 C 333.479 287.967 323.968 277.537 310.777 286.741 L 290.919 298.706 C 288.185 300.353 285.117 301.345 281.935 301.597 C 277.552 301.946 270.823 302.384 264.217 302.425 C 260.904 302.445 257.715 303.669 255.235 305.865 C 249.39 311.041 239.989 322.255 239.304 341.22 C 239.244 342.852 241.141 343.801 242.425 342.792 C 243.6 341.869 244.922 340.869 246.042 340.123 C 246.042 340.123 245.483 355.239 256.662 364.882 C 257.521 365.623 258.832 365.489 259.499 364.572 L 263.224 359.451 C 263.224 359.451 264.029 374.482 270.659 387.974 C 271.9 390.498 272.785 393.174 273.328 395.933 C 273.588 397.258 273.838 398.724 274.015 400.188 C 274.217 401.866 276.127 402.708 277.475 401.69 Z" fill="#88ABD6" style="transform-origin: 295.937px 341.914px;" transform="matrix(-1, 0, 0, -1, -0.000013229418, 0.000045750408)"/>
  <path d="M 320.056 331.315 C 319.075 331.242 318.18 330.511 318.046 329.394 C 317.87 327.931 317.62 326.465 317.36 325.139 C 316.817 322.38 315.931 319.703 314.692 317.18 C 308.06 303.687 307.255 288.657 307.255 288.657 C 308.373 283.994 313.083 281.719 313.083 281.719 C 315.525 297.825 328.652 301.808 328.652 301.808 C 328.526 320.993 322.994 328.614 320.056 331.315 Z" fill="#6086AD" style="transform-origin: 317.953px 306.517px;" transform="matrix(-1, 0, 0, -1, 0.000046821528, -0.000013702373)"/>
  <path d="M 247.22 371.342 C 247.217 373.6 246.997 375.661 246.734 377.289 C 246.383 379.463 244.99 381.271 243.058 382.327 C 242.123 382.837 241.226 383.415 240.354 384.04 C 239.711 382.824 239.31 381.457 239.31 379.985 C 239.31 375.445 242.79 371.758 247.22 371.342 Z" fill="#333345" style="transform-origin: 243.265px 377.691px;" transform="matrix(-1, 0, 0, -1, 0.000019642804, -0.000077919248)"/>
  <path d="M 274.723 372.17 C 274.723 372.17 275.344 378.604 283.283 383.802 C 284.339 384.494 285.715 383.576 285.456 382.34 C 284.679 378.621 283.672 372.36 284.522 367.868 L 274.723 372.17 Z" fill="#FFFFFF" style="transform-origin: 280.105px 375.954px;" transform="matrix(-1, 0, 0, -1, -0.000012521661, -0.000016806435)"/>
  <path d="M 270.555 392.298 C 270.555 392.298 271.113 388.776 270.845 385.248 C 270.774 384.327 271.806 383.72 272.582 384.221 C 274.05 385.169 275.935 386.645 276.855 388.424 L 270.555 392.298 Z" fill="#FFFFFF" style="transform-origin: 273.705px 388.169px;" transform="matrix(-1, 0, 0, -1, -0.000073270785, -0.000017352443)"/>
  <path d="M 258.449 396.9 C 258.24 396.165 258.654 395.402 259.389 395.189 C 263.64 393.952 277.236 389.291 287.16 377.906 C 288.765 378.995 289.654 379.966 289.654 379.966 C 289.654 379.966 277.459 394.256 260.065 397.892 C 259.354 398.041 258.648 397.599 258.449 396.9 Z" fill="#6086AD" style="transform-origin: 274.024px 387.913px;" transform="matrix(-1, 0, 0, -1, 0.000048785309, -0.000017341085)"/>
  <path d="M 293.905 449.516 C 296.832 444.061 301.977 436.794 309.848 433.232 C 309.848 433.232 309.601 439.137 311.045 444.496 C 311.269 445.33 312.402 445.455 312.819 444.701 C 315.678 439.547 324.789 426.061 344.507 419.859 C 347.702 418.854 351.157 420.284 352.669 423.275 C 355.342 428.564 358.99 437.653 359.005 447.901 C 359.006 448.786 360.114 449.189 360.694 448.52 C 361.801 447.243 363.121 445.425 363.665 443.524 C 363.665 443.524 365.98 449.527 366.774 457.309 C 366.824 457.796 367.536 457.812 367.587 457.324 C 368.1 452.517 368.341 443.843 365.07 435.559 C 364.799 434.872 363.844 434.827 363.532 435.498 L 362.03 438.708 C 362.03 438.708 362.459 429.158 355.079 414.516 C 353.545 411.472 350.007 410.003 346.785 411.112 C 338.849 413.845 324.187 420.472 314.802 434.244 C 314.802 434.244 314.099 430.24 314.074 427.251 C 314.07 426.715 313.554 426.328 313.038 426.473 C 309.67 427.413 299.072 431.681 292.951 449.076 C 292.738 449.681 293.602 450.082 293.905 449.516 Z" fill="#6086AD" style="transform-origin: 330.404px 434.213px;" transform="matrix(-1, 0, 0, -1, 0.00004626496, -0.000080445983)"/>
  <path d="M 281.842 336.321 L 281.695 336.442 C 278.695 338.852 276.74 342.367 276.34 346.194 C 276.154 347.966 276.12 349.972 276.426 352.032 C 276.526 352.711 277.435 352.891 277.781 352.299 L 279.611 349.185 L 287.562 337.692 L 291.916 336.241 C 292.696 335.653 292.447 334.427 291.501 334.189 C 288.126 333.341 284.549 334.132 281.842 336.321 Z" fill="#6086AD" style="transform-origin: 284.289px 343.256px;" transform="matrix(-1, 0, 0, -1, -0.000012708711, -0.000015344737)"/>
  <path d="M 280.454 350.279 C 282.995 348.263 286.971 344.888 289.028 342.005 C 289.444 341.423 289.665 340.738 289.651 340.022 C 289.636 339.1 289.614 337.649 289.619 336.193 C 289.622 334.738 288.061 333.827 286.786 334.528 C 283.38 336.4 278.148 340.63 277.973 349.014 C 277.945 350.318 279.432 351.09 280.454 350.279 Z" fill="#FFFFFF" style="transform-origin: 283.812px 342.449px;" transform="matrix(-1, 0, 0, -1, -0.000012687403, -0.000015308686)"/>
</svg>