<svg width="28" height="38" viewBox="0 0 28 38" fill="none" xmlns="http://www.w3.org/2000/svg">
<path d="M20.2214 17.5054C20.2214 17.5054 13.0876 25.1701 13.0876 29.8868C13.0746 30.8288 13.2488 31.7641 13.6002 32.6394C13.9517 33.5146 14.4735 34.3127 15.136 34.9879C16.4738 36.3516 18.3031 37.1323 20.2214 37.1584C22.1397 37.1844 23.9898 36.4537 25.3649 35.1269C26.0457 34.4699 26.5894 33.6863 26.9649 32.821C27.3404 31.9556 27.5404 31.0253 27.5534 30.0833V29.8868C27.5534 25.1701 20.2214 17.5054 20.2214 17.5054ZM17.3084 14.8385L18.6341 13.4156L14.0784 0.812195H10.1151L0.207031 28.3263H4.17027L7.00399 20.4652H12.8359C14.1808 18.482 15.6731 16.6012 17.3005 14.8385H17.3084ZM12.0968 6.31503L15.7826 16.5346H8.41887L12.0968 6.31503Z" fill="#999999"/>
</svg>
