<svg width="14" height="18" viewBox="0 0 14 18" fill="none" xmlns="http://www.w3.org/2000/svg">
<path d="M7.4493 10.3721H3.06649L3.04305 7.95804H6.72274C7.37117 7.95804 7.90242 7.87601 8.31649 7.71194C8.73055 7.54007 9.03914 7.29398 9.24227 6.97366C9.45321 6.64554 9.55867 6.2471 9.55867 5.77835C9.55867 5.2471 9.45711 4.81741 9.25399 4.48929C9.05867 4.16116 8.75008 3.92288 8.32821 3.77444C7.91414 3.62601 7.37899 3.55179 6.72274 3.55179H4.28524V17.8604H0.769611V0.797882H6.72274C7.71492 0.797882 8.60164 0.891632 9.38289 1.07913C10.172 1.26663 10.8399 1.55179 11.3868 1.9346C11.9337 2.31741 12.3516 2.80179 12.6407 3.38773C12.9298 3.96585 13.0743 4.65335 13.0743 5.45023C13.0743 6.15335 12.9141 6.80179 12.5938 7.39554C12.2813 7.98929 11.7852 8.47366 11.1055 8.84866C10.4337 9.22366 9.55477 9.43069 8.46883 9.46976L7.4493 10.3721ZM7.29696 17.8604H2.10555L3.47664 15.1182H7.29696C7.91414 15.1182 8.41805 15.0205 8.80867 14.8252C9.1993 14.6221 9.48836 14.3487 9.67586 14.0049C9.86336 13.6612 9.95711 13.2666 9.95711 12.8213C9.95711 12.3213 9.87117 11.8877 9.6993 11.5205C9.53524 11.1534 9.26961 10.8721 8.90242 10.6768C8.53524 10.4737 8.05086 10.3721 7.4493 10.3721H4.06258L4.08602 7.95804H8.30477L9.11336 8.90726C10.1524 8.89163 10.9884 9.07523 11.6212 9.45804C12.2618 9.83304 12.7266 10.3213 13.0157 10.9229C13.3126 11.5244 13.461 12.169 13.461 12.8565C13.461 13.9502 13.2227 14.8721 12.7462 15.6221C12.2696 16.3643 11.5704 16.9229 10.6485 17.2979C9.73446 17.6729 8.61727 17.8604 7.29696 17.8604Z" fill="#999999"/>
</svg>
