<svg width="7" height="18" viewBox="0 0 7 18" fill="none" xmlns="http://www.w3.org/2000/svg">
<path d="M5.31551 4.97739L3.11238 17.6571H0.991291L3.19442 4.97739H5.31551ZM3.61629 1.64926C3.61629 1.28207 3.72957 0.977386 3.95613 0.735199C4.19051 0.485199 4.49129 0.356293 4.85848 0.34848C5.22567 0.340668 5.52645 0.453949 5.76082 0.688324C6.00301 0.922699 6.1202 1.21957 6.11238 1.57895C6.11238 1.93832 5.99129 2.23911 5.7491 2.48129C5.51473 2.71567 5.21785 2.83676 4.85848 2.84457C4.4991 2.85239 4.20223 2.74692 3.96785 2.52817C3.73348 2.30161 3.61629 2.00864 3.61629 1.64926Z" fill="#999999"/>
</svg>
