<svg width="35" height="27" viewBox="0 0 35 27" fill="none" xmlns="http://www.w3.org/2000/svg">
<path d="M20.8099 11.4846L27.2917 19.6879H6.82291L11.9401 13.2893L15.5221 17.7191L20.4687 11.4846H20.8099ZM11.0872 11.4846C12.4518 11.4846 13.6458 10.3361 13.6458 9.02361C13.6458 7.71109 12.4518 6.56263 11.0872 6.56263C9.72265 6.56263 8.52864 7.71109 8.52864 9.02361C8.52864 10.3361 9.72265 11.4846 11.0872 11.4846ZM34.1146 3.28131V22.9692C34.1146 24.7739 32.5794 26.2505 30.7031 26.2505H3.41146C1.53516 26.2505 0 24.7739 0 22.9692V3.28131C0 1.47659 1.53516 0 3.41146 0H30.7031C32.5794 0 34.1146 1.47659 34.1146 3.28131ZM30.7031 7.87515V3.28131H3.41146V22.9692H30.7031V7.87515Z" fill="#999999"/>
</svg>
