<svg width="43" height="37" viewBox="0 0 43 37" fill="none" xmlns="http://www.w3.org/2000/svg">
<line x1="10" y1="31.5" x2="32.2189" y2="31.5" stroke="#999999"/>
<path d="M25.3253 8.9375H27.5753V20.4805C27.5753 21.7617 27.2901 22.8281 26.7198 23.6797C26.1495 24.5312 25.3917 25.1719 24.4464 25.6016C23.5089 26.0234 22.4893 26.2344 21.3878 26.2344C20.2315 26.2344 19.1847 26.0234 18.2472 25.6016C17.3175 25.1719 16.5792 24.5312 16.0323 23.6797C15.4932 22.8281 15.2237 21.7617 15.2237 20.4805V8.9375H17.462V20.4805C17.462 21.3711 17.6261 22.1055 17.9542 22.6836C18.2823 23.2617 18.7393 23.6914 19.3253 23.9727C19.919 24.2539 20.6065 24.3945 21.3878 24.3945C22.1768 24.3945 22.8643 24.2539 23.4503 23.9727C24.044 23.6914 24.505 23.2617 24.8331 22.6836C25.1612 22.1055 25.3253 21.3711 25.3253 20.4805V8.9375Z" fill="#999999"/>
</svg>
