<svg width="35" height="18" viewBox="0 0 35 18" fill="none" xmlns="http://www.w3.org/2000/svg">
<path d="M15.7695 17.1088H8.94661C6.68467 17.1088 4.51538 16.2445 2.91595 14.7061C1.31652 13.1677 0.417969 11.0812 0.417969 8.90553C0.417969 6.72988 1.31652 4.64334 2.91595 3.10493C4.51538 1.56651 6.68467 0.70224 8.94661 0.70224H15.7695V3.98355H8.94661C7.58945 3.98355 6.28787 4.50212 5.32822 5.42517C4.36856 6.34821 3.82943 7.60014 3.82943 8.90553C3.82943 10.2109 4.36856 11.4628 5.32822 12.3859C6.28787 13.3089 7.58945 13.8275 8.94661 13.8275H15.7695V17.1088ZM26.0039 0.70224H19.181V3.98355H26.0039C27.3611 3.98355 28.6626 4.50212 29.6223 5.42517C30.582 6.34821 31.1211 7.60014 31.1211 8.90553C31.1211 10.2109 30.582 11.4628 29.6223 12.3859C28.6626 13.3089 27.3611 13.8275 26.0039 13.8275H19.181V17.1088H26.0039C28.2658 17.1088 30.4351 16.2445 32.0346 14.7061C33.634 13.1677 34.5325 11.0812 34.5325 8.90553C34.5325 6.72988 33.634 4.64334 32.0346 3.10493C30.4351 1.56651 28.2658 0.70224 26.0039 0.70224ZM24.2982 7.26487H10.6523V10.5462H24.2982V7.26487Z" fill="#999999"/>
</svg>
