<?xml version="1.0" encoding="utf-8"?><!-- Uploaded to: SVG Repo, www.svgrepo.com, Generator: SVG Repo Mixer Tools -->
<svg width="100px" height="100px" viewBox="0 0 64 64" fill="none" xmlns="http://www.w3.org/2000/svg">
<path fill-rule="evenodd" clip-rule="evenodd" d="M32.1173 16.1273C34.2749 15.7022 36.5329 15.9523 38.5399 16.8526C44.26 19.7287 45.0879 28.7822 37.5364 32.9337C37.5364 32.9337 36.8088 34.9845 36.0813 35.4097C35.3286 35.6848 34.5007 35.7848 33.6979 35.7098C32.7446 35.6598 31.8163 35.4347 30.9884 35.0095C30.4866 34.2092 30.1354 33.3089 29.9848 32.3585C22.9602 26.9314 25.5442 17.778 32.0672 16.1523H32.1173V16.1273Z" fill="#2A2941"/>
<path d="M31.9668 34.4594C31.9668 34.4594 32.6944 24.6306 32.4435 22.93C32.318 22.1547 30.0852 21.4794 30.4364 24.1805C30.8127 27.1816 36.6332 26.9315 37.9378 26.0812C38.7657 25.556 37.1099 22.3548 36.3321 23.5052C35.5544 24.6807 35.0777 34.5094 35.0777 34.5094" stroke="white" stroke-width="2.0336" stroke-miterlimit="1.22" stroke-linecap="square"/>
<path fill-rule="evenodd" clip-rule="evenodd" d="M34.6011 14.8019H34.3251C33.4972 14.8019 32.6693 14.8769 31.8414 15.027C24.616 16.8276 21.505 26.8565 28.9562 32.9838C29.0817 33.534 29.2573 34.0842 29.458 34.6094C29.6336 35.0846 29.8845 35.5098 30.2608 35.8599C30.5117 36.06 30.7877 36.21 31.0887 36.3101C31.9166 36.5852 32.7696 36.7602 33.6226 36.8353C34.6764 36.9353 35.7301 36.7852 36.7085 36.3851C37.1099 36.085 37.4361 35.7098 37.6869 35.2847C37.9629 34.7845 38.2138 34.2843 38.4145 33.7341C46.4929 28.9823 45.3388 19.0785 39.0166 15.8523C37.8876 15.3271 36.6583 15.002 35.4039 14.8519C35.1279 14.8269 34.8269 14.8269 34.5509 14.8519L34.6011 14.8019ZM32.1174 16.1274C33.1961 15.9273 34.2749 15.9023 35.3537 16.0273C36.4576 16.1524 37.5364 16.4525 38.565 16.9027C44.2851 19.7788 45.113 28.8322 37.5615 32.9838C37.5615 32.9838 36.8339 35.0346 36.1064 35.4597C35.3537 35.7348 34.5258 35.8349 33.723 35.7598C32.7696 35.7098 31.8414 35.4847 31.0135 35.0596C30.5117 34.2593 30.1605 33.3589 30.0099 32.4086C22.9852 26.9815 25.5693 17.828 32.0923 16.2024V16.1274H32.1174Z" fill="#2A2941"/>
<path fill-rule="evenodd" clip-rule="evenodd" d="M29.9598 34.5593C32.3933 35.2096 34.9523 35.4097 37.4611 35.0845C37.6117 36.9102 36.1816 39.8113 34.6763 40.1114C34.2498 40.1364 33.7983 40.1364 33.3718 40.1114C32.9703 40.0864 32.594 40.0114 32.2177 39.8864C30.6121 39.2861 29.4831 36.6101 29.9598 34.5593Z" fill="#2A2941"/>
<path fill-rule="evenodd" clip-rule="evenodd" d="M30.311 33.3339L28.9562 32.9838L28.6551 34.3593C28.3541 35.9849 28.6301 37.6605 29.4329 39.1111C29.9346 40.0615 30.7375 40.8117 31.741 41.2369C32.2177 41.387 32.6943 41.487 33.1961 41.537C33.7481 41.587 34.3251 41.587 34.877 41.537C35.9307 41.2369 36.8339 40.5366 37.4109 39.5863C38.3141 38.2608 38.7908 36.6852 38.7657 35.0846L38.6403 33.634L37.1851 33.8091C34.877 34.0842 32.5438 33.9341 30.311 33.3339ZM29.9597 34.6344C32.3933 35.2846 34.9523 35.4847 37.4611 35.1596C37.6116 36.9853 36.1816 39.8864 34.6763 40.1865C34.2498 40.2115 33.7982 40.2115 33.3717 40.1865C32.9703 40.1615 32.594 40.0865 32.2177 39.9614C30.6622 39.2862 29.5332 36.6101 29.9848 34.5594V34.6344H29.9597Z" fill="#2A2941"/>
<path fill-rule="evenodd" clip-rule="evenodd" d="M44.9374 32.7586L26.7485 40.5366L31.5654 52.066L49.7544 44.4131L44.9374 32.6836V32.7586Z" fill="#2A2941"/>
<path fill-rule="evenodd" clip-rule="evenodd" d="M27.2502 45.3384L26.7485 40.5616L44.9876 32.8837L47.8727 36.6851L27.2502 45.3384Z" fill="#2A2941"/>
<path fill-rule="evenodd" clip-rule="evenodd" d="M22.3581 36.3101L16.9139 38.861L16.0358 36.185L22.057 35.2847L22.3581 36.3101Z" fill="#2A2941"/>
<path fill-rule="evenodd" clip-rule="evenodd" d="M16.5627 39.7863L23.2361 36.6601L22.5587 34.5343L15.1577 35.6347L16.5627 39.7863ZM22.358 36.31L16.9139 38.8609L16.0358 36.1849L22.057 35.2846L22.358 36.31Z" fill="#2A2941"/>
<path fill-rule="evenodd" clip-rule="evenodd" d="M25.0927 35.2846L24.1895 35.6598L23.8884 34.9095L24.892 34.6094L25.0927 35.2846Z" fill="#2A2941"/>
<path fill-rule="evenodd" clip-rule="evenodd" d="M23.7881 36.5351L25.8704 35.6597L25.3686 33.734L22.9852 34.4343L23.7881 36.5351ZM25.0675 35.2596L24.1644 35.6347L23.8633 34.8844L24.8668 34.5843L25.0675 35.2596Z" fill="#2A2941"/>
<path fill-rule="evenodd" clip-rule="evenodd" d="M20.4513 30.0327L12.2224 28.207L13.527 24.4556L21.0284 28.6322L20.5015 30.0827L20.4513 30.0327Z" fill="#2A2941"/>
<path fill-rule="evenodd" clip-rule="evenodd" d="M11.2941 28.6821L20.8778 30.8079L21.8061 28.3069L13.1507 23.4801L11.2941 28.6821ZM20.4513 30.0326L12.2224 28.2069L13.527 24.4555L21.0283 28.6321L20.5015 30.0826L20.4513 30.0326Z" fill="#2A2941"/>
<path fill-rule="evenodd" clip-rule="evenodd" d="M24.3902 31.233L23.0856 30.8829L23.4117 29.8075L24.8668 30.3327L24.4654 31.233H24.3902Z" fill="#2A2941"/>
<path fill-rule="evenodd" clip-rule="evenodd" d="M22.2075 31.3582L24.7665 32.0584L25.6446 29.9576L22.9351 28.9072L22.2075 31.3582ZM24.3902 31.2331L23.0605 30.883L23.3867 29.8076L24.7665 30.3328L24.3902 31.2331Z" fill="#2A2941"/>
<path fill-rule="evenodd" clip-rule="evenodd" d="M33.7982 13.1512C34.8519 12.9512 35.9307 12.9012 36.9844 13.0012C38.0883 13.1262 39.1671 13.4264 40.1957 13.8765C45.9158 16.7526 46.7437 25.8061 39.1922 29.9576C39.1922 29.9576 38.4646 31.9834 37.7371 32.4336C36.9844 32.7087 36.1565 32.8087 35.3537 32.7087C34.4003 32.6837 33.4721 32.4336 32.6442 32.0084C32.1424 31.2081 31.7912 30.3078 31.6406 29.3574C24.6912 23.9053 27.2753 14.7519 33.7982 13.1512Z" fill="white"/>
<path fill-rule="evenodd" clip-rule="evenodd" d="M33.447 23.7053C33.3216 27.0816 32.9955 31.4082 32.9955 31.4082V32.0835L34.3502 32.1835V31.5083C34.3502 31.5083 34.6513 27.4817 34.8018 24.1054C35.4039 24.2305 36.006 24.2805 36.6332 24.2805C36.3071 27.4817 36.1315 31.4833 36.1315 31.4833V32.1585H37.4862V31.5083C37.4862 31.5083 37.6619 27.4317 38.0131 24.2305H38.1636C38.8159 24.1555 39.4431 23.9804 40.0201 23.6553C40.1958 23.5302 40.3212 23.3802 40.4216 23.2051C40.5219 23.03 40.5721 22.805 40.547 22.6049C40.4968 21.8046 40.1958 21.0043 39.7191 20.379C39.5686 20.1289 39.3428 19.9539 39.0919 19.8038C38.841 19.6788 38.565 19.6037 38.264 19.6287C38.1134 19.6538 37.9629 19.7288 37.8375 19.8038C37.712 19.9039 37.6117 20.0039 37.5364 20.1289C37.135 21.0543 36.9092 22.0297 36.8339 23.005C36.1817 23.005 35.5294 22.93 34.9022 22.7799C34.9774 21.8296 34.9774 20.8542 34.9022 19.9038C34.852 19.6788 34.7516 19.4537 34.6011 19.2786C34.4506 19.1035 34.2749 18.9535 34.0492 18.8535C33.6979 18.6784 33.3216 18.6034 32.9453 18.6784C32.569 18.7534 32.2177 18.9535 31.9668 19.2536C31.7661 19.5537 31.6156 19.9039 31.5403 20.254C31.4651 20.6041 31.4651 20.9793 31.5403 21.3544C31.6156 21.9046 31.8665 22.4298 32.2177 22.855C32.569 23.2801 33.0456 23.6053 33.5474 23.8053L33.447 23.7053ZM38.5149 21.0043C38.4647 21.1293 38.4396 21.2794 38.3894 21.4044C38.2891 21.8046 38.2138 22.2798 38.1385 22.855C38.4898 22.805 38.841 22.7049 39.1922 22.5549C39.1922 22.5048 39.1922 22.4298 39.1922 22.3798C39.1421 22.0547 39.0417 21.7546 38.8661 21.4794C38.7657 21.3294 38.6654 21.1793 38.5399 21.0543L38.5149 21.0043ZM33.4721 20.0539C33.4219 20.0039 33.3718 19.9539 33.3216 19.9289C33.2714 19.9039 33.1962 19.8788 33.146 19.8788C33.0707 19.8788 33.0205 19.9039 32.9704 19.9289C32.8951 20.0039 32.87 20.1039 32.8449 20.179C32.7947 20.4541 32.7947 20.7542 32.8449 21.0543C32.87 21.2794 32.9453 21.5045 33.0707 21.7045C33.1962 21.9046 33.3718 22.0547 33.5725 22.1797C33.5474 21.4794 33.5223 20.7792 33.4721 20.0539Z" fill="#FEC34E"/>
<path fill-rule="evenodd" clip-rule="evenodd" d="M36.282 11.8007H36.006C35.1781 11.7757 34.3502 11.8507 33.5223 12.0258C26.2969 13.8015 23.186 23.8553 30.6371 29.9826C30.7626 30.5328 30.9382 31.083 31.1389 31.6333C31.3145 32.1084 31.5905 32.5336 31.9417 32.8837C32.1926 33.0838 32.4686 33.2339 32.7696 33.3339C33.5976 33.634 34.4506 33.8091 35.3036 33.8591C36.3573 33.9591 37.411 33.8091 38.3894 33.4089C38.7908 33.1088 39.117 32.7337 39.3678 32.3085C39.6438 31.8083 39.8947 31.3081 40.0954 30.7579C48.1738 26.0061 47.0197 16.1023 40.6975 12.8761C39.5685 12.3509 38.3392 12.0258 37.0848 11.8757H36.2318L36.282 11.8007ZM33.7983 13.1262C34.852 12.9261 35.9308 12.8761 36.9845 12.9762C38.0883 13.1012 39.1671 13.4013 40.1958 13.8515C45.9159 16.7276 46.7438 25.781 39.1922 29.9326C39.1922 29.9326 38.4647 31.9584 37.7371 32.4085C36.9845 32.6836 36.1566 32.7837 35.3537 32.6836C34.4004 32.6586 33.4721 32.4085 32.6442 31.9834C32.1424 31.1831 31.7912 30.2827 31.6407 29.3324C24.7163 23.9053 27.2753 14.7518 33.7983 13.1262Z" fill="#2A2941"/>
<path fill-rule="evenodd" clip-rule="evenodd" d="M31.6406 31.5582C34.0742 32.2335 36.6332 32.4086 39.142 32.0834C39.2925 33.9091 37.8625 36.8102 36.3572 37.1103C35.9307 37.1604 35.4791 37.1604 35.0526 37.1103C34.6512 37.0603 34.2749 37.0103 33.8986 36.8853C32.3431 36.335 31.2141 33.634 31.6657 31.5832V31.5582H31.6406Z" fill="#7772EE"/>
<path fill-rule="evenodd" clip-rule="evenodd" d="M31.9668 30.2577L30.612 29.9076L30.311 31.2831C30.0099 32.9087 30.2859 34.5844 31.0887 36.0349C31.5905 36.9853 32.3933 37.7356 33.3968 38.1607C33.8735 38.3108 34.3502 38.3858 34.8519 38.4608C35.429 38.5109 35.9809 38.5109 36.5579 38.4608C37.6116 38.1607 38.5148 37.4605 39.0668 36.5101C39.9699 35.1846 40.4466 33.584 40.4215 31.9834L40.2961 30.5328L38.841 30.7079C36.5579 30.983 34.2247 30.8329 31.9668 30.2577ZM31.6406 31.5582C34.0742 32.2335 36.6332 32.4085 39.142 32.0834C39.2925 33.9091 37.8625 36.8102 36.3572 37.1103C35.9307 37.1603 35.4791 37.1603 35.0526 37.1103C34.6512 37.0853 34.2749 37.0103 33.8986 36.8852C32.3431 36.335 31.2141 33.634 31.6657 31.5832V31.5582H31.6406Z" fill="#2A2941"/>
<path fill-rule="evenodd" clip-rule="evenodd" d="M46.6183 29.7576L28.4294 37.5355L33.2463 49.0649L51.4353 41.412L46.6183 29.7576Z" fill="#4C5EFD"/>
<path fill-rule="evenodd" clip-rule="evenodd" d="M52.7147 41.9622L47.1201 28.332L27.0495 37.0103L32.6693 50.4654L52.7147 41.9622ZM46.0162 31.0581L50.0303 40.8868L33.7982 47.7394L29.7841 38.0607L46.0664 31.1081L46.0162 31.0581Z" fill="#2A2941"/>
<path fill-rule="evenodd" clip-rule="evenodd" d="M28.9061 42.3373L28.4294 37.5605L46.6685 29.8826L49.5536 33.684L28.9061 42.3373Z" fill="#FEC34E"/>
<path fill-rule="evenodd" clip-rule="evenodd" d="M26.9993 36.6852L27.7771 44.2881L51.661 34.1843L47.1702 28.157L26.9993 36.6852ZM28.906 42.3374L28.4294 37.5606L46.6685 29.8826L49.5536 33.6841L28.906 42.3374Z" fill="#2A2941"/>
<path fill-rule="evenodd" clip-rule="evenodd" d="M24.039 33.3339L18.5948 35.8848L17.7167 33.2088L23.7379 32.3085L24.039 33.3339Z" fill="#32EDBB"/>
<path fill-rule="evenodd" clip-rule="evenodd" d="M18.1934 36.7852L24.8669 33.659L24.1895 31.5332L16.7885 32.6336L18.2436 36.7602H18.1934V36.7852ZM23.9888 33.3089L18.5446 35.8598L17.6665 33.1838L23.6877 32.2835L23.9888 33.3089Z" fill="#2A2941"/>
<path fill-rule="evenodd" clip-rule="evenodd" d="M26.7736 32.2835L25.8704 32.6587L25.5693 31.8834L26.5729 31.5833L26.7736 32.2835Z" fill="#32EDBB"/>
<path fill-rule="evenodd" clip-rule="evenodd" d="M25.494 33.534L27.5764 32.6587L27.0746 30.7579L24.6912 31.4582L25.494 33.534ZM26.7735 32.2835L25.8704 32.6587L25.5693 31.8834L26.5728 31.5832L26.7735 32.2835Z" fill="#2A2941"/>
<path fill-rule="evenodd" clip-rule="evenodd" d="M22.1323 27.0315L13.8531 25.1808L15.1577 21.4543L22.6591 25.6309L22.1323 27.0815V27.0315Z" fill="#32EDBB"/>
<path fill-rule="evenodd" clip-rule="evenodd" d="M12.975 25.681L22.5838 27.8068L23.5121 25.3058L14.8316 20.454L12.975 25.681ZM22.1322 27.0315L13.8531 25.1808L15.1577 21.4544L22.6591 25.6309L22.1322 27.0815V27.0315Z" fill="#2A2941"/>
<path fill-rule="evenodd" clip-rule="evenodd" d="M26.0711 28.2319L24.7414 27.8818L25.0675 26.7814L26.4474 27.3316L26.0711 28.2319Z" fill="#32EDBB"/>
<path fill-rule="evenodd" clip-rule="evenodd" d="M23.8884 28.3571L26.4474 29.0323L27.3255 26.9565L24.616 25.9061L23.8884 28.3571ZM26.0711 28.232L24.7414 27.8819L25.0676 26.7815L26.4474 27.3317L26.0711 28.232Z" fill="#2A2941"/>
</svg>