<svg width="16" height="16" viewBox="0 0 16 16" fill="none" xmlns="http://www.w3.org/2000/svg">
<g clip-path="url(#clip0_428_36)">
<path d="M15.2695 11.6076C14.6059 10.9258 12.7198 9.64873 11.4836 9.64873C11.1973 9.64873 10.9473 9.71236 10.7428 9.84416C10.1383 10.2305 9.65658 10.5304 9.42479 10.5304C9.29754 10.5304 9.16119 10.4168 8.86123 10.1578L8.81124 10.1123C7.97953 9.38967 7.80228 9.20333 7.47959 8.86701L7.39779 8.78066C7.3387 8.72158 7.28871 8.66704 7.23872 8.61705C6.95694 8.32618 6.75242 8.11711 6.02979 7.29904L5.99797 7.26268C5.65256 6.87182 5.42532 6.61731 5.41168 6.43097C5.39805 6.24918 5.55712 5.95376 5.96161 5.40383C6.45246 4.74028 6.47064 3.92221 6.0207 2.97234C5.66165 2.22243 5.07537 1.50435 4.55725 0.872613L4.5118 0.818074C4.06641 0.272691 3.54829 0 2.9711 0C2.33027 0 1.79852 0.345409 1.51674 0.527203C1.49402 0.540838 1.47129 0.559017 1.44857 0.572652C0.816836 0.972599 0.357805 1.52253 0.1851 2.08154C-0.0739563 2.92234 -0.246661 4.01311 0.994085 6.28099C2.06667 8.24437 3.03927 9.56238 4.58452 11.1485C6.03888 12.6392 6.68424 13.121 8.12951 14.1663C9.73839 15.3298 11.2836 15.9979 12.3653 15.9979C13.3697 15.9979 14.1605 15.9979 15.2877 14.639C16.4693 13.2119 15.9785 12.3393 15.2695 11.6076Z" fill="white"/>
</g>
<defs>
<clipPath id="clip0_428_36">
<rect width="16" height="16" fill="white"/>
</clipPath>
</defs>
</svg>
