<svg width="12" height="16" viewBox="0 0 12 16" fill="none" xmlns="http://www.w3.org/2000/svg">
<g clip-path="url(#clip0_428_30)">
<path d="M6 0C2.68656 0 0 2.68656 0 6C0 8.41906 0.842813 9.09469 5.38438 15.6781C5.68222 16.1084 6.31906 16.1084 6.61688 15.6781C11.1562 9.09375 12 8.41875 12 6C12 2.68656 9.3125 0 6 0ZM6 8.47188C4.62094 8.47188 3.5 7.35063 3.5 5.97188C3.5 4.59313 4.62188 3.47187 6 3.47187C7.37812 3.47187 8.5 4.59313 8.5 5.97188C8.5 7.35063 7.37812 8.47188 6 8.47188Z" fill="white"/>
</g>
<defs>
<clipPath id="clip0_428_30">
<rect width="12" height="16" fill="white"/>
</clipPath>
</defs>
</svg>
