<svg width="16" height="16" viewBox="0 0 16 16" fill="none" xmlns="http://www.w3.org/2000/svg">
<path d="M13.3333 2H2.66667C1.2 2 0 3.2 0 4.66667V11.3333C0 12.8 1.2 14 2.66667 14H13.3333C14.8 14 16 12.8 16 11.3333V4.66667C16 3.2 14.8 2 13.3333 2ZM14.4 5.86667L9.13333 9.4C8.8 9.6 8.4 9.73333 8 9.73333C7.6 9.73333 7.2 9.6 6.86667 9.4L1.6 5.86667C1.33333 5.66667 1.26667 5.26667 1.46667 4.93333C1.66667 4.66667 2.06667 4.6 2.4 4.8L7.66667 8.33333C7.86667 8.46667 8.2 8.46667 8.4 8.33333L13.6667 4.8C14 4.6 14.4 4.66667 14.6 5C14.7333 5.26667 14.6667 5.66667 14.4 5.86667Z" fill="white"/>
</svg>
