<svg width="20" height="20" viewBox="0 0 20 20" fill="none" xmlns="http://www.w3.org/2000/svg">
<g clip-path="url(#clip0_427_18)">
<path d="M19.2152 4.49854H15.9698C15.8373 4.49854 15.7073 4.53445 15.5936 4.60246C15.4799 4.67047 15.3868 4.76802 15.3242 4.88475C15.3242 4.88475 14.0298 7.26862 13.6139 8.0716C12.4954 10.2315 11.771 9.55344 11.771 8.55096V5.09445C11.771 4.80561 11.6563 4.5286 11.4521 4.32436C11.2478 4.12012 10.9708 4.00538 10.682 4.00538H8.24184C7.90952 3.98067 7.57641 4.04133 7.27414 4.18159C6.97186 4.32185 6.71046 4.53705 6.51478 4.80677C6.51478 4.80677 7.75386 4.60643 7.75386 6.27598C7.75386 6.68998 7.77518 7.88096 7.79461 8.87984C7.79827 9.02712 7.75668 9.17184 7.67545 9.29464C7.59422 9.41752 7.47726 9.5124 7.34036 9.56664C7.20346 9.62088 7.05322 9.63184 6.90992 9.59792C6.76662 9.56408 6.63716 9.48704 6.53902 9.37728C5.54022 7.98813 4.71288 6.48342 4.07498 4.89583C4.0202 4.77707 3.9325 4.67652 3.82229 4.6061C3.71207 4.53568 3.58398 4.49835 3.45319 4.49854C2.74935 4.49854 1.3409 4.49854 0.504462 4.49854C0.423354 4.49799 0.343322 4.51713 0.271246 4.55434C0.199169 4.59154 0.137201 4.64569 0.0906656 4.71212C0.0441302 4.77855 0.0144189 4.85529 0.004084 4.93574C-0.00625087 5.01619 0.00309974 5.09795 0.0313325 5.17399C0.926712 7.63 4.7837 15.3482 9.18608 15.3482H11.039C11.2332 15.3481 11.4194 15.271 11.5566 15.1337C11.6939 14.9964 11.771 14.8102 11.771 14.6161V13.4972C11.771 13.3569 11.8122 13.2195 11.8892 13.1022C11.9662 12.985 12.076 12.8927 12.2048 12.837C12.3336 12.7813 12.4759 12.7645 12.6142 12.7886C12.7525 12.8128 12.8806 12.8769 12.983 12.973L15.2008 15.0568C15.4 15.2439 15.663 15.3481 15.9363 15.3482H18.8487C20.2534 15.3482 20.2534 14.3734 19.4876 13.6191C18.9486 13.0883 17.0037 11.0383 17.0037 11.0383C16.8371 10.8658 16.7378 10.6394 16.7236 10.3999C16.7094 10.1606 16.7814 9.924 16.9264 9.73296C17.555 8.90568 18.5833 7.55146 19.0194 6.97133C19.6154 6.17838 20.6942 4.49854 19.2152 4.49854Z" fill="white"/>
</g>
<defs>
<clipPath id="clip0_427_18">
<rect width="20" height="20" fill="white"/>
</clipPath>
</defs>
</svg>
