<svg width="50" height="50" viewBox="0 0 50 50" fill="none" xmlns="http://www.w3.org/2000/svg">
<path d="M29.5833 22.9167L37.5 33.3334H12.5L18.75 25.2084L23.125 30.8334L29.1667 22.9167H29.5833ZM17.7083 22.9167C19.375 22.9167 20.8333 21.4584 20.8333 19.7917C20.8333 18.125 19.375 16.6667 17.7083 16.6667C16.0417 16.6667 14.5833 18.125 14.5833 19.7917C14.5833 21.4584 16.0417 22.9167 17.7083 22.9167ZM45.8333 12.5V37.5C45.8333 39.7917 43.9583 41.6667 41.6667 41.6667H8.33332C6.04166 41.6667 4.16666 39.7917 4.16666 37.5V12.5C4.16666 10.2084 6.04166 8.33337 8.33332 8.33337H41.6667C43.9583 8.33337 45.8333 10.2084 45.8333 12.5ZM41.6667 18.3334V12.5H8.33332V37.5H41.6667V18.3334Z" fill="white"/>
</svg>
